PathFileType	4	(X/Y/Z)	c:/Users/goper/Files/vsCode/490R/osim_files/C11/C11_Slow_03.trc
DataRate	CameraRate	NumFrames	NumMarkers	Units                	OrigDataRate	OrigDataStartFrame	OrigNumFrames
120.00	120.00	8	36	mm	120.0	847	1354
                Frame#	Time	LPSIS			LASIS			LTH1			LTH2			LTH3			LTH4			LLFE			LMFE			LSH1			LSH2			LSH3			LSH4			LLMAL			LMMAL			LCAL			LMTP5			LTOE			LMTP1			RPSIS			RASIS			RTH1			RTH2			RTH3			RTH4			RLFE			RMFE			RSH1			RSH2			RSH3			RSH4			RLMAL			RMMAL			RCAL			RMTP1			RTOE			RMTP5		
		X1	Y1	Z1	X2	Y2	Z2	X3	Y3	Z3	X4	Y4	Z4	X5	Y5	Z5	X6	Y6	Z6	X7	Y7	Z7	X8	Y8	Z8	X9	Y9	Z9	X10	Y10	Z10	X11	Y11	Z11	X12	Y12	Z12	X13	Y13	Z13	X14	Y14	Z14	X15	Y15	Z15	X16	Y16	Z16	X17	Y17	Z17	X18	Y18	Z18	X19	Y19	Z19	X20	Y20	Z20	X21	Y21	Z21	X22	Y22	Z22	X23	Y23	Z23	X24	Y24	Z24	X25	Y25	Z25	X26	Y26	Z26	X27	Y27	Z27	X28	Y28	Z28	X29	Y29	Z29	X30	Y30	Z30	X31	Y31	Z31	X32	Y32	Z32	X33	Y33	Z33	X34	Y34	Z34	X35	Y35	Z35	X36	Y36	Z36

847	7.05000	-1102.75989	991.48010	375.33456	-1273.67249	998.82391	455.29510	-1259.40015	600.27142	491.58411	-1273.89319	554.96185	490.89349	-1314.17236	611.72443	514.47467	-1320.73242	566.62244	507.24591	0.00000	0.00000	0.00000	-1337.53589	496.68494	386.52371	-1208.23352	479.08890	504.52002	-1173.03247	453.16400	505.72446	-1241.80481	429.07959	516.66821	-1201.93481	408.27570	516.60577	-965.59192	276.90076	460.50833	-1006.54181	255.88908	372.60776	-912.90540	302.17786	395.80478	-972.95801	154.29976	496.42822	-1039.25476	103.67806	442.85056	-1010.34485	124.13091	391.73102	-1111.74915	1007.39648	292.31213	-1281.16431	990.48370	224.27776	-1272.46350	624.92291	200.56891	-1282.54980	584.73438	212.54184	-1331.12500	637.75134	218.17882	-1332.66272	596.44232	223.50294	-1314.37390	508.47742	239.15495	-1280.41626	495.55682	348.76978	-1250.68005	397.40091	224.90862	-1254.49292	351.97729	230.77380	-1312.83789	395.72119	236.52484	-1307.63464	348.52753	239.25792	-1259.30627	96.17237	295.03043	-1286.32141	108.23225	392.40103	-1197.44165	61.20775	350.61542	-1414.50244	51.65795	373.64853	-1418.49707	64.90633	323.23300	-1376.76086	42.40961	261.68655
848	7.05833	-1110.22717	993.10132	375.75885	-1281.47449	1000.90723	454.90295	-1273.68689	603.19196	492.65451	-1289.66492	558.26465	491.74023	-1328.41809	615.74341	514.87946	-1335.89465	570.78058	507.58075	0.00000	0.00000	0.00000	-1336.70593	504.13562	439.45761	-1224.19299	481.57010	504.09579	-1188.95959	455.00998	505.69089	-1258.70166	432.36676	516.87366	-1219.23169	410.97485	516.92059	-985.49896	275.34598	461.45880	-1026.85291	252.99467	374.04077	-932.24921	297.82285	396.22101	-995.53571	154.00133	500.55176	-1062.61987	103.23277	448.39886	-1033.38501	121.72039	396.61603	-1118.93433	1008.87677	292.41483	-1288.14453	991.78448	223.82825	-1274.75464	625.31354	200.27266	-1284.70764	585.30365	212.17162	-1333.90149	637.59698	217.62572	-1334.89685	596.23151	223.01761	-1315.47803	508.49265	238.42827	-1282.32166	495.85330	348.21890	-1250.96057	397.65027	224.74097	-1254.62366	352.18866	230.59811	-1313.22473	395.72549	235.93404	-1307.75732	348.54633	238.72131	-1259.28699	96.17121	295.02942	-1286.32300	108.29700	392.37677	-1197.47302	61.16002	350.63364	-1414.47607	51.68269	373.64594	-1418.42261	64.83035	323.24713	-1376.73328	42.36893	261.65845
849	7.06667	-1117.79126	994.60089	376.14670	-1289.30066	1003.00543	454.53198	-1287.64600	605.62756	495.27231	-1304.56982	561.57782	492.59222	-1342.33447	619.78711	515.19568	-1350.47205	575.18018	508.94250	0.00000	0.00000	0.00000	-1333.53931	511.95071	499.82355	-1239.88794	483.65454	503.75177	-1206.65063	455.69427	505.75308	-1275.43872	435.37805	517.08594	-1236.36536	413.22504	517.32770	-1005.59497	273.18765	462.60431	-1047.74072	249.53648	375.46768	-951.99115	292.65460	396.57401	-1018.48511	152.97794	504.37549	-1086.67053	102.19158	453.49707	-1056.92310	118.90037	401.48514	-1126.21533	1010.16034	292.69882	-1295.09839	993.00824	223.14368	-1276.24377	627.04492	201.43484	-1286.61389	585.76227	211.88562	-1336.54871	637.34631	217.07034	-1337.09326	596.29913	222.24763	-1316.34827	508.43433	237.76309	-1283.46606	496.30594	347.82361	-1251.12390	397.90579	224.55925	-1254.70618	352.41779	230.38582	-1313.43188	395.68100	235.32108	-1307.83154	348.56305	238.20679	-1259.25464	96.16307	295.00174	-1286.80774	108.38550	392.11398	-1197.03821	61.54456	350.52325	-1414.50098	51.74230	373.54398	-1418.39124	64.80659	323.21774	-1376.71631	42.31117	261.62607
850	7.07500	-1125.26709	996.12500	376.66724	-1297.07532	1004.94348	453.95178	-1301.60376	608.78595	496.15796	-1319.09900	564.95917	493.39203	-1356.41370	624.40161	516.08337	-1365.00964	579.32971	509.15988	0.00000	0.00000	0.00000	-1344.78857	516.48578	511.94049	-1255.12146	485.40784	503.50342	-1222.42249	456.89771	506.11655	-1291.98987	438.16632	517.23999	-1253.41223	415.15158	517.66815	-1025.99792	270.09692	463.72839	-1068.88147	245.52472	377.08508	-971.71613	286.95737	397.11935	-1041.93945	151.16174	507.95978	-1111.27673	100.91010	458.23480	-1080.76770	115.39873	406.38696	-1133.41467	1011.49176	293.03888	-1301.74463	994.03265	222.66602	-1278.50647	627.64716	201.24818	-1288.32507	586.33618	211.53433	-1338.99805	637.18768	216.41457	-1339.08618	596.18152	221.61237	-1317.33008	508.45386	236.97995	-1285.04749	496.55649	347.43774	-1251.30054	398.18954	224.28494	-1254.65552	352.65314	230.16942	-1313.79199	395.95746	234.55887	-1307.93079	348.58298	237.63417	-1259.28906	96.14403	295.00424	-1286.61560	108.56635	392.30508	-1197.34119	61.40350	350.53665	-1414.51562	51.84893	373.43616	-1418.38623	64.85146	323.14142	-1376.68274	42.29914	261.56583
851	7.08333	-1132.59375	997.49884	377.23145	-1304.81335	1006.78638	453.29785	-1315.12354	611.95911	497.06363	-1333.41357	568.25348	494.23425	-1369.93127	628.33081	516.29083	-1379.77051	583.23608	509.45502	0.00000	0.00000	0.00000	-1363.27185	519.26843	499.37146	-1270.24536	486.76303	503.30069	-1237.82935	456.93506	505.26889	-1308.26648	440.61777	517.49518	-1270.23242	416.65723	518.09509	-1046.57214	266.17438	464.86203	-1090.17468	241.37833	378.99152	-991.97296	280.29523	398.00632	-1066.29797	148.33040	511.53485	-1136.65332	98.89047	462.58691	-1105.97522	111.94745	410.05157	-1140.48669	1012.63440	293.35287	-1308.56897	994.97406	221.99608	-1280.74451	628.29199	201.11499	-1290.07812	586.78149	211.17570	-1341.41785	637.03888	215.85587	-1340.93018	595.97791	220.95036	-1318.06946	508.46091	236.33286	-1286.36865	496.73965	347.15680	-1251.51782	398.41452	223.95590	-1254.61182	352.87424	229.94168	-1313.98181	395.85730	234.10727	-1308.06921	348.63013	237.08693	-1259.17749	96.18569	294.94519	-1286.64600	108.50113	392.68292	-1197.61292	61.31898	350.74448	-1414.35083	51.95116	373.42621	-1418.36536	64.93237	323.09222	-1376.66553	42.30650	261.53113
852	7.09167	-1140.04053	998.62878	377.86057	-1312.42346	1008.31219	452.72949	-1328.52380	614.96106	497.93256	-1347.46692	571.42065	495.10904	-1383.17932	632.10657	516.46600	-1393.65515	587.10443	509.48392	0.00000	0.00000	0.00000	-1378.64355	522.51086	496.14026	-1285.10095	487.58929	503.10059	-1253.49670	456.98886	505.34842	-1324.31177	442.48596	517.86981	-1286.86963	417.86050	518.54553	-1067.53503	261.36005	466.19705	-1111.83167	236.56190	380.66885	-1012.89368	272.50516	398.67868	-1090.89465	145.07353	514.61554	-1162.85657	96.97181	466.58154	-1131.62195	108.18982	413.75378	-1147.59680	1013.64447	293.84015	-1315.10327	995.78113	221.38744	-1282.77795	628.87970	200.97331	-1291.73462	587.28650	210.79230	-1343.69556	636.89459	215.22525	-1342.65381	595.79889	220.22980	-1318.92700	508.47791	235.61990	-1288.01282	496.76617	346.82822	-1251.80859	398.54355	223.64914	-1254.82825	353.01239	229.59248	-1314.23914	395.62363	233.47096	-1308.26379	348.63766	236.52823	-1259.15234	96.16660	294.96167	-1286.59595	108.49890	392.63248	-1196.40283	61.92922	350.05954	-1414.37524	52.04802	373.46262	-1418.34375	64.94047	323.06335	-1376.64087	42.32965	261.48163
853	7.10000	-1147.43237	999.57428	378.50034	-1320.15332	1009.75537	452.11017	-1341.71814	617.82941	498.83459	-1361.19116	574.52350	496.01031	-1396.14954	635.81952	516.61377	-1407.24329	590.92017	509.49631	0.00000	0.00000	0.00000	-1391.83923	525.99237	498.86978	-1299.11487	488.67633	502.99878	-1268.97546	456.56659	505.44916	-1340.15662	444.67499	518.07104	-1304.17871	417.93893	518.49329	-1088.71448	255.93434	467.61819	-1133.92102	231.52812	382.38739	-1034.10632	263.90475	400.13556	-1115.51514	141.33369	517.92712	-1189.65234	94.86548	470.03223	-1158.03235	104.34756	417.01337	-1154.67749	1014.38135	294.29282	-1321.68542	996.42596	220.82539	-1284.87561	629.46014	200.80692	-1293.39050	587.66089	210.51244	-1346.00452	636.60498	214.55721	-1344.41504	595.58582	219.49467	-1319.75110	508.37201	234.91850	-1289.44360	496.71844	346.52856	-1252.22827	398.60526	223.26373	-1255.16113	353.08295	229.18362	-1314.66870	395.76422	232.97580	-1308.55994	348.51785	236.02194	-1259.10193	96.18222	294.95828	-1286.55725	108.48296	392.63885	-1197.20496	61.54032	350.72452	-1414.47534	51.97201	373.91345	-1418.30493	64.66698	323.23645	-1376.63672	42.29637	261.44305
854	7.10833	-1154.91455	1000.36859	379.12015	-1327.78284	1011.03223	451.53625	-1354.47485	620.61249	499.71310	-1374.68604	577.46082	496.76440	-1408.90833	639.28033	516.68250	-1420.52942	594.50916	509.51953	0.00000	0.00000	0.00000	-1405.58167	529.14368	498.43500	-1313.11975	489.53915	502.87909	-1284.24219	455.96826	505.49960	-1355.97131	446.34143	518.33289	-1320.69360	418.46133	518.86182	-1110.48767	249.58502	468.86575	-1156.03735	226.28990	384.05942	-1054.82373	255.46758	401.62189	-1141.12476	136.91452	520.73999	-1217.04028	92.60173	472.76089	-1185.17688	100.39635	419.91614	-1161.58875	1015.11066	294.74359	-1328.23047	996.95886	220.25865	-1287.05359	629.99274	200.63893	-1295.04089	588.10406	210.15123	-1348.31262	636.37598	213.97781	-1346.32263	595.39661	218.86884	-1320.64563	508.17227	234.21951	-1290.83557	496.63818	346.25433	-1252.80225	398.59888	222.82678	-1255.63892	353.06894	228.80331	-1315.20728	395.44580	232.41266	-1308.98157	348.38858	235.49786	-1259.07007	96.14048	294.95081	-1286.51648	108.46724	392.63715	-1197.28577	61.48939	350.79486	-1414.10828	51.61805	373.91022	-1418.27002	64.62831	323.19876	-1376.61475	42.26577	261.40106
